<svg width="205" height="27" viewBox="0 0 205 27" fill="none" xmlns="http://www.w3.org/2000/svg">
<path d="M131.872 21.568C130.192 21.568 128.72 21.2 127.456 20.464C126.208 19.728 125.224 18.712 124.504 17.416C123.8 16.104 123.448 14.592 123.448 12.88C123.448 11.168 123.8 9.664 124.504 8.368C125.224 7.056 126.208 6.032 127.456 5.296C128.72 4.56 130.192 4.192 131.872 4.192C133.536 4.192 135 4.56 136.264 5.296C137.528 6.032 138.512 7.056 139.216 8.368C139.92 9.664 140.272 11.168 140.272 12.88C140.272 14.592 139.92 16.104 139.216 17.416C138.512 18.712 137.528 19.728 136.264 20.464C135 21.2 133.536 21.568 131.872 21.568ZM131.872 18.808C133.472 18.808 134.744 18.28 135.688 17.224C136.648 16.168 137.128 14.72 137.128 12.88C137.128 11.04 136.648 9.592 135.688 8.536C134.744 7.48 133.472 6.952 131.872 6.952C130.272 6.952 128.992 7.48 128.032 8.536C127.072 9.592 126.592 11.04 126.592 12.88C126.592 14.72 127.072 16.168 128.032 17.224C128.992 18.28 130.272 18.808 131.872 18.808Z" fill="#585B60"/>
<path d="M148.216 21.28C146.968 21.28 145.968 20.976 145.216 20.368C144.464 19.76 144.088 18.68 144.088 17.128V11.944H142.048V9.376H144.088L144.448 6.184H147.16V9.376H150.376V11.944H147.16V17.152C147.16 17.728 147.28 18.128 147.52 18.352C147.776 18.56 148.208 18.664 148.816 18.664H150.304V21.28H148.216Z" fill="#585B60"/>
<path d="M158.493 21.568C157.293 21.568 156.229 21.312 155.301 20.8C154.373 20.288 153.645 19.568 153.117 18.64C152.589 17.712 152.325 16.64 152.325 15.424C152.325 14.192 152.581 13.096 153.093 12.136C153.621 11.176 154.341 10.432 155.253 9.904C156.181 9.36 157.269 9.088 158.517 9.088C159.685 9.088 160.717 9.344 161.613 9.856C162.509 10.368 163.205 11.072 163.701 11.968C164.213 12.848 164.469 13.832 164.469 14.92C164.469 15.096 164.461 15.28 164.445 15.472C164.445 15.664 164.437 15.864 164.421 16.072H155.373C155.437 17 155.757 17.728 156.333 18.256C156.925 18.784 157.637 19.048 158.469 19.048C159.093 19.048 159.613 18.912 160.029 18.64C160.461 18.352 160.781 17.984 160.989 17.536H164.109C163.885 18.288 163.509 18.976 162.981 19.6C162.469 20.208 161.829 20.688 161.061 21.04C160.309 21.392 159.453 21.568 158.493 21.568ZM158.517 11.584C157.765 11.584 157.101 11.8 156.525 12.232C155.949 12.648 155.581 13.288 155.421 14.152H161.349C161.301 13.368 161.013 12.744 160.485 12.28C159.957 11.816 159.301 11.584 158.517 11.584Z" fill="#585B60"/>
<path d="M171.973 21.568C170.917 21.568 169.989 21.4 169.189 21.064C168.389 20.712 167.749 20.232 167.269 19.624C166.789 19.016 166.501 18.312 166.405 17.512H169.501C169.597 17.976 169.853 18.376 170.269 18.712C170.701 19.032 171.253 19.192 171.925 19.192C172.597 19.192 173.085 19.056 173.389 18.784C173.709 18.512 173.869 18.2 173.869 17.848C173.869 17.336 173.645 16.992 173.197 16.816C172.749 16.624 172.125 16.44 171.325 16.264C170.813 16.152 170.293 16.016 169.765 15.856C169.237 15.696 168.749 15.496 168.301 15.256C167.869 15 167.517 14.68 167.245 14.296C166.973 13.896 166.837 13.408 166.837 12.832C166.837 11.776 167.253 10.888 168.085 10.168C168.933 9.448 170.117 9.088 171.637 9.088C173.045 9.088 174.165 9.416 174.997 10.072C175.845 10.728 176.349 11.632 176.509 12.784H173.605C173.429 11.904 172.765 11.464 171.613 11.464C171.037 11.464 170.589 11.576 170.269 11.8C169.965 12.024 169.813 12.304 169.813 12.64C169.813 12.992 170.045 13.272 170.509 13.48C170.973 13.688 171.589 13.88 172.357 14.056C173.189 14.248 173.949 14.464 174.637 14.704C175.341 14.928 175.901 15.272 176.317 15.736C176.733 16.184 176.941 16.832 176.941 17.68C176.957 18.416 176.765 19.08 176.365 19.672C175.965 20.264 175.389 20.728 174.637 21.064C173.885 21.4 172.997 21.568 171.973 21.568Z" fill="#585B60"/>
<path d="M181.318 7.528C180.758 7.528 180.294 7.36 179.926 7.024C179.574 6.688 179.398 6.264 179.398 5.752C179.398 5.24 179.574 4.824 179.926 4.504C180.294 4.168 180.758 4 181.318 4C181.878 4 182.334 4.168 182.686 4.504C183.054 4.824 183.238 5.24 183.238 5.752C183.238 6.264 183.054 6.688 182.686 7.024C182.334 7.36 181.878 7.528 181.318 7.528ZM179.782 21.28V9.376H182.854V21.28H179.782Z" fill="#585B60"/>
<path d="M186.061 21.28V4H189.133V21.28H186.061Z" fill="#585B60"/>
<path d="M198.056 21.568C196.856 21.568 195.792 21.312 194.864 20.8C193.936 20.288 193.208 19.568 192.68 18.64C192.152 17.712 191.888 16.64 191.888 15.424C191.888 14.192 192.144 13.096 192.656 12.136C193.184 11.176 193.904 10.432 194.816 9.904C195.744 9.36 196.832 9.088 198.08 9.088C199.248 9.088 200.28 9.344 201.176 9.856C202.072 10.368 202.768 11.072 203.264 11.968C203.776 12.848 204.032 13.832 204.032 14.92C204.032 15.096 204.024 15.28 204.008 15.472C204.008 15.664 204 15.864 203.984 16.072H194.936C195 17 195.32 17.728 195.896 18.256C196.488 18.784 197.2 19.048 198.032 19.048C198.656 19.048 199.176 18.912 199.592 18.64C200.024 18.352 200.344 17.984 200.552 17.536H203.672C203.448 18.288 203.072 18.976 202.544 19.6C202.032 20.208 201.392 20.688 200.624 21.04C199.872 21.392 199.016 21.568 198.056 21.568ZM198.08 11.584C197.328 11.584 196.664 11.8 196.088 12.232C195.512 12.648 195.144 13.288 194.984 14.152H200.912C200.864 13.368 200.576 12.744 200.048 12.28C199.52 11.816 198.864 11.584 198.08 11.584Z" fill="#585B60"/>
<path d="M46 21.28V4.48H49.072V11.272L55.288 4.48H59.08L52.888 11.152L59.248 21.28H55.48L50.68 13.504L49.072 15.256V21.28H46Z" fill="#030712"/>
<path d="M66.0792 21.568C64.8792 21.568 63.8152 21.312 62.8872 20.8C61.9592 20.288 61.2312 19.568 60.7032 18.64C60.1752 17.712 59.9112 16.64 59.9112 15.424C59.9112 14.192 60.1672 13.096 60.6792 12.136C61.2072 11.176 61.9272 10.432 62.8392 9.904C63.7672 9.36 64.8552 9.088 66.1032 9.088C67.2712 9.088 68.3032 9.344 69.1992 9.856C70.0952 10.368 70.7912 11.072 71.2872 11.968C71.7992 12.848 72.0552 13.832 72.0552 14.92C72.0552 15.096 72.0472 15.28 72.0312 15.472C72.0312 15.664 72.0232 15.864 72.0072 16.072H62.9592C63.0232 17 63.3432 17.728 63.9192 18.256C64.5112 18.784 65.2232 19.048 66.0552 19.048C66.6792 19.048 67.1992 18.912 67.6152 18.64C68.0472 18.352 68.3672 17.984 68.5752 17.536H71.6952C71.4712 18.288 71.0952 18.976 70.5672 19.6C70.0552 20.208 69.4152 20.688 68.6472 21.04C67.8952 21.392 67.0392 21.568 66.0792 21.568ZM66.1032 11.584C65.3512 11.584 64.6872 11.8 64.1112 12.232C63.5352 12.648 63.1672 13.288 63.0072 14.152H68.9352C68.8872 13.368 68.5992 12.744 68.0712 12.28C67.5432 11.816 66.8872 11.584 66.1032 11.584Z" fill="#030712"/>
<path d="M74.6389 21.28V9.376H77.3509L77.5909 11.392C77.9589 10.688 78.4869 10.128 79.1749 9.712C79.8789 9.296 80.7029 9.088 81.6469 9.088C83.1189 9.088 84.2629 9.552 85.0789 10.48C85.8949 11.408 86.3029 12.768 86.3029 14.56V21.28H83.2309V14.848C83.2309 13.824 83.0229 13.04 82.6069 12.496C82.1909 11.952 81.5429 11.68 80.6629 11.68C79.7989 11.68 79.0869 11.984 78.5269 12.592C77.9829 13.2 77.7109 14.048 77.7109 15.136V21.28H74.6389Z" fill="#030712"/>
<path d="M89.2405 21.28V9.376H91.9525L92.1925 11.392C92.5605 10.688 93.0885 10.128 93.7765 9.712C94.4805 9.296 95.3045 9.088 96.2485 9.088C97.7205 9.088 98.8645 9.552 99.6805 10.48C100.497 11.408 100.904 12.768 100.904 14.56V21.28H97.8325V14.848C97.8325 13.824 97.6245 13.04 97.2085 12.496C96.7925 11.952 96.1445 11.68 95.2645 11.68C94.4005 11.68 93.6885 11.984 93.1285 12.592C92.5845 13.2 92.3125 14.048 92.3125 15.136V21.28H89.2405Z" fill="#030712"/>
<path d="M104.932 26.56L107.692 20.488H106.972L102.34 9.376H105.676L109.012 17.752L112.492 9.376H115.756L108.196 26.56H104.932Z" fill="#030712"/>
<path d="M1 21.28V4.48H4.072V11.272L10.288 4.48H14.08L7.888 11.152L14.248 21.28H10.48L5.68 13.504L4.072 15.256V21.28H1Z" fill="#030712"/>
<path d="M23.0048 21.568C21.3248 21.568 19.8528 21.2 18.5888 20.464C17.3408 19.728 16.3568 18.712 15.6368 17.416C14.9328 16.104 14.5808 14.592 14.5808 12.88C14.5808 11.168 14.9328 9.664 15.6368 8.368C16.3568 7.056 17.3408 6.032 18.5888 5.296C19.8528 4.56 21.3248 4.192 23.0048 4.192C24.6688 4.192 26.1328 4.56 27.3968 5.296C28.6608 6.032 29.6448 7.056 30.3488 8.368C31.0528 9.664 31.4048 11.168 31.4048 12.88C31.4048 14.592 31.0528 16.104 30.3488 17.416C29.6448 18.712 28.6608 19.728 27.3968 20.464C26.1328 21.2 24.6688 21.568 23.0048 21.568ZM23.0048 18.808C24.6048 18.808 25.8768 18.28 26.8208 17.224C27.7808 16.168 28.2608 14.72 28.2608 12.88C28.2608 11.04 27.7808 9.592 26.8208 8.536C25.8768 7.48 24.6048 6.952 23.0048 6.952C21.4048 6.952 20.1248 7.48 19.1648 8.536C18.2048 9.592 17.7248 11.04 17.7248 12.88C17.7248 14.72 18.2048 16.168 19.1648 17.224C20.1248 18.28 21.4048 18.808 23.0048 18.808Z" fill="#030712"/>
<path d="M1 21.28V4.48H4.072V11.272L10.288 4.48H14.08L7.888 11.152L14.248 21.28H10.48L5.68 13.504L4.072 15.256V21.28H1Z" stroke="#030712"/>
<path d="M23.0048 21.568C21.3248 21.568 19.8528 21.2 18.5888 20.464C17.3408 19.728 16.3568 18.712 15.6368 17.416C14.9328 16.104 14.5808 14.592 14.5808 12.88C14.5808 11.168 14.9328 9.664 15.6368 8.368C16.3568 7.056 17.3408 6.032 18.5888 5.296C19.8528 4.56 21.3248 4.192 23.0048 4.192C24.6688 4.192 26.1328 4.56 27.3968 5.296C28.6608 6.032 29.6448 7.056 30.3488 8.368C31.0528 9.664 31.4048 11.168 31.4048 12.88C31.4048 14.592 31.0528 16.104 30.3488 17.416C29.6448 18.712 28.6608 19.728 27.3968 20.464C26.1328 21.2 24.6688 21.568 23.0048 21.568ZM23.0048 18.808C24.6048 18.808 25.8768 18.28 26.8208 17.224C27.7808 16.168 28.2608 14.72 28.2608 12.88C28.2608 11.04 27.7808 9.592 26.8208 8.536C25.8768 7.48 24.6048 6.952 23.0048 6.952C21.4048 6.952 20.1248 7.48 19.1648 8.536C18.2048 9.592 17.7248 11.04 17.7248 12.88C17.7248 14.72 18.2048 16.168 19.1648 17.224C20.1248 18.28 21.4048 18.808 23.0048 18.808Z" stroke="#030712"/>
</svg>
