<svg width="233" height="57" viewBox="0 0 233 57" fill="none" xmlns="http://www.w3.org/2000/svg">
<path d="M15.3544 49.5458C15.1848 49.5458 14.969 49.4533 14.7994 49.2991C14.5373 49.0833 14.3677 48.7595 14.3677 48.5128C14.3677 48.4357 14.3985 48.3432 14.4293 48.2815L23.3412 30.7815C22.4932 30.1802 21.8456 29.1934 21.7377 27.7132H21.7685V27.7287C21.7685 25.7551 24.8677 22.4864 29.339 19.0172L35.0285 7.83879C36.0615 5.83439 36.5086 4.43131 36.5086 3.49078C36.5086 2.39606 35.9073 1.97976 34.7355 1.97976C33.61 1.97976 32.0064 2.41148 30.0791 3.07448C25.1144 4.73968 18.654 8.178 13.1959 12.2639C10.3126 14.4379 7.72229 16.7815 5.79498 19.156C3.8985 21.4996 2.6496 23.8432 2.40291 26.0789L2.38749 26.1714C2.37207 26.3873 2.35665 26.5877 2.35665 26.8036C2.35665 27.0502 2.37207 27.2969 2.40291 27.5282C2.61876 29.363 3.6518 31.0436 5.81039 32.5084C6.10335 32.7397 6.31921 33.1097 6.31921 33.4027L6.30379 33.526C6.24211 33.711 6.07251 33.8344 5.88749 33.8344H5.77956C5.64079 33.8344 5.47119 33.7727 5.317 33.6802C2.24872 31.5062 0.922729 28.9621 0.922729 26.2947C0.922729 25.9401 0.953566 25.5701 0.999822 25.2C1.30819 22.7639 2.66502 20.2199 4.66943 17.7375C6.65841 15.2859 9.27956 12.8961 12.1782 10.7066C17.7443 6.48197 24.3589 3.04364 29.3853 1.45553C31.3589 0.838794 33.1937 0.46875 34.7047 0.46875C37.0329 0.46875 38.6055 1.39386 38.6055 3.58329C38.6055 4.80135 38.1276 6.45113 37.0174 8.56346L32.947 16.3498C37.5571 13.0965 43.5857 9.51941 49.013 6.91368C52.1893 5.38725 55.1496 4.15377 57.6011 3.47536C58.9888 3.0899 60.2531 2.87404 61.2862 2.87404C62.1342 2.87404 62.8434 3.02822 63.3831 3.33659C64.2619 3.8454 64.7707 4.64716 64.7707 5.72646C64.7707 5.94232 64.7399 6.1736 64.7091 6.40487C64.6782 6.62073 64.4778 6.77492 64.2774 6.77492C64.154 6.77492 63.9998 6.71324 63.8611 6.63615C63.5527 6.42029 63.306 6.03483 63.306 5.71104V5.63395C63.3368 5.44893 63.3522 5.29474 63.3522 5.17139C63.3522 4.83219 63.2752 4.678 63.1518 4.58549C62.8434 4.41589 62.4271 4.32338 61.8567 4.32338C60.9778 4.32338 59.806 4.53923 58.4029 4.94012C56.0439 5.60311 53.1144 6.79034 49.969 8.30135C43.6937 11.3234 36.5703 15.6251 31.2663 19.5723L25.6078 30.4269C25.4227 30.4269 25.4844 30.4269 25.5152 30.4577C27.0417 30.874 28.8919 30.9203 30.0791 30.9203H48.3346C48.6584 30.9203 49.0593 31.2441 49.2289 31.6141C49.2906 31.7221 49.3214 31.8454 49.3214 31.9533C49.3214 32.1846 49.1364 32.4005 48.8743 32.4005H30.6342C29.3853 32.4005 27.4117 32.3542 25.6848 31.8762C25.4073 31.7991 25.1298 31.7066 24.9756 31.645L15.7399 49.33C15.6782 49.4688 15.5086 49.5458 15.3544 49.5458ZM23.8963 29.6868L27.5351 22.5635C25.0373 24.6912 23.1716 26.8806 23.1716 28.2529V28.2221H23.187C23.2179 28.9621 23.5263 29.4093 23.8963 29.6868Z" fill="black"/>
<path d="M53.0527 34.3586C52.1122 34.3586 51.3258 34.0965 50.7553 33.4489C50.4007 33.0326 50.0152 32.1846 49.9073 31.6604C49.8456 31.3828 49.8148 31.1053 49.8148 30.8124C49.8148 26.6339 55.5967 21.037 58.9426 21.037H58.958C59.2663 21.037 59.5439 21.0833 59.806 21.1912C60.7774 21.5458 61.502 22.656 61.502 23.7044L61.4866 23.9203C61.3941 24.9379 60.6694 26.1406 59.143 27.1582C57.6782 28.1295 54.9337 29.2705 52.8368 29.2705C52.4822 29.2705 52.1276 29.2397 51.8192 29.1626C51.4337 29.9643 51.187 30.7507 51.187 31.3983C51.187 32.2309 51.6188 32.8168 52.7597 32.8168C53.0064 32.8168 53.2994 32.7859 53.6386 32.7243C56.9998 32.0921 63.4756 28.5304 66.0351 26.4335C66.0967 26.3718 66.1738 26.3564 66.2663 26.3564C66.621 26.3564 67.0527 26.7881 67.0527 27.1582C67.0527 27.2815 67.0064 27.3895 66.9139 27.4665C64.2774 29.7485 57.3544 33.8344 53.8082 34.3124C53.5461 34.3432 53.284 34.3586 53.0527 34.3586ZM52.806 27.4974C53.9778 27.2507 55.7355 26.6956 57.7399 25.3388C58.5879 24.7837 59.8214 23.7507 59.8985 22.6406C59.7135 22.5789 59.5285 22.548 59.3434 22.548C57.0307 22.5635 53.4844 26.5877 52.806 27.4974Z" fill="black"/>
<path d="M63.7685 33.7573C63.2906 33.7573 62.7355 33.1097 62.7355 32.6317C62.7355 32.5547 62.7355 32.493 62.7663 32.4313C63.0285 31.8454 66.5901 23.2727 66.8522 22.3168C66.8831 22.0855 67.0218 21.9776 67.2069 21.9776C67.6232 21.9776 68.2862 22.5172 68.2862 23.0877V23.1494C68.2553 23.4115 67.9932 24.2287 67.5769 25.2925C68.3016 24.3983 69.3038 23.2881 70.1981 22.656C70.7377 22.2859 71.2157 22.1317 71.6474 22.1317C74.0373 22.1317 74.7619 27.189 75.7333 28.7309C75.98 29.1163 76.35 29.363 76.9514 29.363C77.8919 29.363 79.4029 28.7771 81.8853 27.189C81.9778 27.1273 82.0703 27.0965 82.1628 27.0965C82.4712 27.0965 82.7641 27.3432 82.9337 27.5436C83.1188 27.7749 83.2113 28.0062 83.2113 28.2066C83.2113 28.3454 83.165 28.4533 83.0571 28.5304C80.6518 30.2265 78.8324 30.9049 77.4139 30.9049C75.9029 30.9049 74.8699 30.1339 74.1144 29.0392C73.3126 27.9137 72.9271 26.4798 72.6033 25.2463C72.4183 24.5525 72.2487 23.9203 72.1562 23.6736H72.1254C71.4161 23.6736 69.9051 25.308 69.4888 25.8013C67.2377 28.3454 64.8016 32.308 64.2003 33.4181C64.1232 33.5723 64.0769 33.6802 63.9227 33.7265L63.7685 33.7573Z" fill="black"/>
<path d="M80.5439 33.7573C80.0659 33.7573 79.5108 33.1097 79.5108 32.6317C79.5108 32.5547 79.5108 32.493 79.5417 32.4313C79.8038 31.8454 83.3655 23.2727 83.6276 22.3168C83.6584 22.0855 83.7972 21.9776 83.9822 21.9776C84.3985 21.9776 85.0615 22.5172 85.0615 23.0877V23.1494C85.0307 23.4115 84.7685 24.2287 84.3522 25.2925C85.0769 24.3983 86.0791 23.2881 86.9734 22.656C87.513 22.2859 87.991 22.1317 88.4227 22.1317C90.8126 22.1317 91.5373 27.189 92.5086 28.7309C92.7553 29.1163 93.1254 29.363 93.7267 29.363C94.6672 29.363 96.1782 28.7771 98.6606 27.189C98.7531 27.1273 98.8456 27.0965 98.9381 27.0965C99.2465 27.0965 99.5395 27.3432 99.7091 27.5436C99.8941 27.7749 99.9866 28.0062 99.9866 28.2066C99.9866 28.3454 99.9404 28.4533 99.8324 28.5304C97.4271 30.2265 95.6078 30.9049 94.1893 30.9049C92.6782 30.9049 91.6452 30.1339 90.8897 29.0392C90.0879 27.9137 89.7025 26.4798 89.3787 25.2463C89.1937 24.5525 89.0241 23.9203 88.9315 23.6736H88.9007C88.1915 23.6736 86.6804 25.308 86.2641 25.8013C84.013 28.3454 81.5769 32.308 80.9756 33.4181C80.8985 33.5723 80.8522 33.6802 80.6981 33.7265L80.5439 33.7573Z" fill="black"/>
<path d="M92.8941 49.0833C91.3214 49.0833 89.7179 48.3895 88.2994 46.863C87.1122 45.5679 86.3412 44.0106 86.3412 42.4688C86.3412 41.4049 86.7113 40.3564 87.6056 39.4159C89.7796 37.1185 100.202 33.1714 103.61 31.6604C104.119 30.5657 104.628 29.5018 105.075 28.515C104.042 29.6251 102.053 31.6295 100.665 32.0458C100.403 32.1229 100.172 32.1538 99.9404 32.1538C98.7531 32.1538 98.121 31.1207 98.121 29.9489C98.121 29.7022 98.1364 29.4401 98.1981 29.1934C98.4756 27.852 99.4007 25.8476 101.02 23.211C101.297 22.7793 101.667 22.5943 102.006 22.5943C102.592 22.5943 103.147 23.1185 103.194 23.7969V23.8586C103.194 24.0899 103.055 24.2441 102.824 24.2441C102.747 24.2441 102.654 24.2132 102.561 24.1824C102.454 24.2749 102.376 24.3828 102.346 24.4291C101.436 25.8939 99.6628 28.8542 99.5241 30.6119C100.758 30.3806 102.5 28.6075 103.348 27.7441C105.738 25.2925 108.097 22.1472 108.436 21.5458C108.513 21.4225 108.621 21.3608 108.76 21.3608C109.207 21.3608 109.854 21.993 109.854 22.4864C109.854 22.6097 109.808 22.7176 109.716 22.8102C109.654 22.9335 109.5 23.1185 109.33 23.3344C108.297 25.7397 107.264 28.1295 106.216 30.5194L115.914 26.2331C115.96 26.2176 116.006 26.2022 116.053 26.2022C116.392 26.2022 116.854 26.6648 116.854 27.0194C116.854 27.1736 116.777 27.2969 116.608 27.374L105.368 32.4313C103.533 36.5172 101.405 41.1119 99.4778 44.5348C97.9051 47.3256 95.4381 49.0833 92.8941 49.0833ZM92.2157 47.5414C94.4051 47.5414 96.502 45.5987 97.7509 43.4093C99.3236 40.6185 101.066 37.0723 102.685 33.6339C99.6937 34.9908 91.013 38.3058 89.0549 40.4027C88.2531 41.2661 87.8368 42.2375 87.8368 43.1934C87.8368 44.1648 88.2531 45.1516 89.1011 46.0458C90.1033 47.1097 91.1672 47.5414 92.2157 47.5414Z" fill="black"/>
<path d="M136.652 40.5414C137.731 40.5414 138.764 40.1714 139.674 39.7705C143.698 37.9203 148.185 32.5084 150.39 29.2859H149.434C147.537 29.2859 145.764 29.3168 144.022 29.3168C140.229 29.3168 136.575 29.178 132.258 28.3608C132.227 28.6075 132.134 29.0084 132.088 29.3939C131.965 30.2881 131.857 31.4291 131.857 32.6472C131.857 35.8234 132.55 39.4313 135.326 40.3256C135.773 40.4798 136.22 40.5414 136.652 40.5414ZM145.61 27.8212C148.092 27.8212 150.266 27.7903 151.438 27.7749C154.352 23.1802 159.055 14.4379 159.055 8.22426C159.055 7.11412 158.901 6.0965 158.577 5.18681C157.729 2.92029 155.663 1.97976 152.934 1.97976C144.947 1.97976 131.672 10.1053 128.819 17.1207C128.218 18.6009 127.74 20.2661 127.74 21.808C127.74 23.8278 128.542 25.5855 130.824 26.3873C131.302 23.7353 133.306 18.863 134.817 15.8256C135.017 15.4401 135.141 15.2243 135.218 15.1317C135.326 15.0238 135.495 14.9776 135.65 14.9776C136.05 14.9776 136.606 15.3168 136.76 15.6868C136.821 15.7947 136.837 15.9181 136.837 16.0106C136.837 16.2419 136.713 16.4269 136.621 16.5811C135.002 19.341 133.075 24.0282 132.52 27.0348C134.139 27.6824 140.491 27.8212 145.61 27.8212ZM137.022 42.0062C136.313 42.0062 135.619 41.8828 134.987 41.6207C131.317 40.1868 130.253 35.4842 130.253 31.5679C130.253 30.5657 130.33 29.5943 130.438 28.7617C130.484 28.4071 130.561 28.0062 130.592 27.7595C127.247 26.1868 125.705 23.6428 125.705 20.8058C125.705 19.711 125.921 18.5855 126.337 17.4445C129.313 9.44232 143.236 0.561261 152.332 0.561261C155.802 0.561261 158.608 1.87183 159.826 5.00179C160.381 6.40487 160.612 7.88505 160.612 9.38064C160.612 15.9335 156.11 23.0414 153.412 27.7749L154.136 27.7903L156.511 27.7749H163.742C164.251 27.8058 164.667 28.2375 164.76 28.6075L164.775 28.6692L164.806 28.8542C164.713 29.178 164.575 29.2705 164.266 29.2705H152.44C149.434 33.3718 145.209 39.0921 140.46 41.189C139.273 41.7287 138.101 42.0062 137.022 42.0062Z" fill="black"/>
<path d="M153.797 56.4688C153.335 56.4688 152.749 55.8058 152.749 55.3278C152.749 55.2507 152.764 55.1736 152.78 55.1119L169.123 20.6362L156.31 20.8366C156.372 20.9754 156.418 21.1758 156.418 21.33C156.418 21.4842 156.372 21.6075 156.28 21.6075C156.249 21.6075 156.202 21.5921 156.156 21.5458C155.432 20.9908 152.857 20.8674 150.498 20.8674C148.539 20.8674 146.72 20.9599 146.196 20.9599H146.165C145.548 20.9599 145.194 20.4974 145.194 20.0348C145.194 19.5414 145.595 19.048 146.489 19.048L169.802 19.1868L170.788 17.0745C170.865 16.9357 171.066 16.8586 171.328 16.8586C171.96 16.8586 172.916 17.2903 172.916 17.9225C172.916 18.0304 172.885 18.1384 172.824 18.2463L172.361 19.1868L189.938 19.2947C190.139 19.2947 190.231 19.4643 190.231 19.6648C190.231 19.9577 190.046 20.3124 189.753 20.3124L171.683 20.5899L154.229 56.1604C154.121 56.3762 153.967 56.4688 153.797 56.4688Z" fill="black"/>
<path d="M174.52 34.3586C173.579 34.3586 172.793 34.0965 172.222 33.4489C171.868 33.0326 171.482 32.1846 171.374 31.6604C171.313 31.3828 171.282 31.1053 171.282 30.8124C171.282 26.6339 177.064 21.037 180.41 21.037H180.425C180.733 21.037 181.011 21.0833 181.273 21.1912C182.244 21.5458 182.969 22.656 182.969 23.7044L182.954 23.9203C182.861 24.9379 182.136 26.1406 180.61 27.1582C179.145 28.1295 176.401 29.2705 174.304 29.2705C173.949 29.2705 173.595 29.2397 173.286 29.1626C172.901 29.9643 172.654 30.7507 172.654 31.3983C172.654 32.2309 173.086 32.8168 174.227 32.8168C174.473 32.8168 174.766 32.7859 175.106 32.7243C178.467 32.0921 184.943 28.5304 187.502 26.4335C187.564 26.3718 187.641 26.3564 187.733 26.3564C188.088 26.3564 188.52 26.7881 188.52 27.1582C188.52 27.2815 188.473 27.3895 188.381 27.4665C185.744 29.7485 178.821 33.8344 175.275 34.3124C175.013 34.3432 174.751 34.3586 174.52 34.3586ZM174.273 27.4974C175.445 27.2507 177.202 26.6956 179.207 25.3388C180.055 24.7837 181.288 23.7507 181.365 22.6406C181.18 22.5789 180.995 22.548 180.81 22.548C178.498 22.5635 174.951 26.5877 174.273 27.4974Z" fill="black"/>
<path d="M186.654 34.004C185.59 34.004 184.619 33.2639 184.095 31.9688C184.033 31.8146 184.002 31.6758 184.002 31.537C184.002 31.1978 184.233 30.9049 184.634 30.5502C185.236 30.0414 186.392 29.4555 188.011 28.9159C187.733 28.0987 187.317 27.3278 187.024 26.526C186.747 25.8322 186.546 25.1692 186.546 24.5679C186.546 23.9357 186.777 23.3652 187.41 22.9027C188.196 22.3322 189.691 21.7617 190.94 21.7617C191.65 21.7617 192.282 21.9467 192.683 22.3939C192.96 22.6097 193.084 22.8256 193.084 23.1031C193.084 23.2419 193.053 23.4115 192.976 23.5811C192.883 23.7661 192.744 23.8432 192.59 23.8432C192.436 23.8432 192.251 23.7661 192.081 23.6273C190.925 23.9357 189.738 24.0128 188.72 24.7375C188.335 25.0304 188.196 25.3696 188.196 25.7859C188.196 26.0943 188.288 26.4489 188.412 26.819C188.643 27.4049 188.905 27.9754 189.152 28.5613C191.372 27.9137 194.302 27.2815 197.786 26.7881H197.817C198.095 26.7881 198.434 27.0348 198.634 27.374C198.711 27.5128 198.742 27.6516 198.742 27.7595C198.742 27.9445 198.65 28.0679 198.48 28.0833C194.857 28.5921 191.865 29.2397 189.63 29.9181C189.738 30.319 189.815 30.7044 189.815 31.0745C189.815 32.1229 189.275 33.0789 187.656 33.7881C187.317 33.9269 186.978 34.004 186.654 34.004ZM186.022 32.4005C186.824 32.4005 188.165 31.8146 188.258 30.3806C186.808 30.874 185.868 31.3828 185.528 31.7991C185.451 31.9071 185.405 31.9996 185.405 32.0767C185.405 32.2925 185.652 32.4005 186.022 32.4005Z" fill="black"/>
<path d="M201.132 21.4379C200.762 21.4379 200.253 20.8674 200.253 20.2969C200.253 20.189 200.269 20.0811 200.315 19.9732C200.731 18.9401 201.764 16.7815 202.227 15.7793C202.335 15.5789 202.998 15.3322 203.568 15.3168C204.031 15.3168 204.416 15.471 204.416 15.9335C204.416 16.1648 204.324 16.4732 204.061 16.8895C203.275 18.1384 201.934 20.3586 201.41 21.2529C201.348 21.3917 201.24 21.4379 201.132 21.4379ZM199.05 33.0326C198.881 33.0326 198.711 33.0018 198.557 32.9555C198.218 32.8939 197.91 32.7243 197.617 32.4467C196.954 31.8146 196.691 30.8278 196.691 29.7176C196.691 26.6802 198.603 22.7639 199.266 22.7639H199.282C200.423 22.8102 200.824 23.3036 200.824 24.0128V24.0899C200.808 24.3983 200.561 24.5987 200.346 24.7837L200.207 24.9071C199.76 25.7551 198.218 29.1163 198.218 30.8278C198.218 31.167 198.28 31.4599 198.434 31.6295C198.465 31.645 198.511 31.6604 198.557 31.6604C198.619 31.6604 198.68 31.645 198.727 31.6295C200.13 31.1516 205.619 27.0194 207.423 25.8476C207.515 25.7859 207.608 25.7705 207.7 25.7705C207.993 25.7705 208.302 26.0172 208.471 26.2176C208.656 26.4335 208.733 26.6956 208.733 26.8961C208.733 27.0348 208.687 27.1582 208.595 27.2353C207.407 28.0216 206.39 28.7617 205.465 29.4093C203.167 31.0436 201.44 32.2771 200.099 32.7705C199.698 32.9401 199.359 33.0326 199.05 33.0326Z" fill="black"/>
<path d="M203.753 43.1009C203.599 43.1009 203.445 43.0855 203.321 43.0238C202.504 42.6692 202.134 41.852 202.134 40.6802C202.134 40.1097 202.227 39.4467 202.396 38.7066C204.432 29.7947 213.976 10.4754 219.002 3.22866C219.511 2.34981 220.05 2.0106 220.498 1.91809C220.59 1.90267 220.667 1.90267 220.744 1.90267H220.775C221.546 1.90267 222.348 2.48857 222.656 3.15157C222.764 3.38285 222.81 3.6758 222.81 4.01501C222.81 8.39386 214.515 20.7749 212.434 23.5811C211.632 24.6912 209.288 27.7595 208.024 28.2683C206.482 31.7991 204.647 35.9621 203.799 39.6626C203.676 40.2793 203.537 40.9423 203.537 41.3124V41.4203C203.553 41.5591 203.614 41.6207 203.722 41.6207C204.555 41.6207 207.854 38.0282 207.962 37.8895C210.229 35.4225 213.297 31.6758 217.321 26.341C217.383 26.2639 217.476 26.2331 217.568 26.2331C217.753 26.2331 217.969 26.3256 218.154 26.5106C218.37 26.711 218.493 26.9886 218.493 27.189C218.493 27.2815 218.478 27.3432 218.432 27.4049C214.392 32.7397 211.324 36.5172 209.026 38.9996C208.255 39.8168 205.434 43.1009 203.753 43.1009ZM210.059 23.7815C211.647 21.808 221.762 6.28153 221.762 3.76831C221.762 3.55245 221.685 3.4291 221.515 3.4291H221.5C221.484 3.4291 221.454 3.4291 221.423 3.44452C219.465 3.82998 211.123 21.4996 210.059 23.7815Z" fill="black"/>
<path d="M218.956 34.3586C218.015 34.3586 217.229 34.0965 216.658 33.4489C216.304 33.0326 215.918 32.1846 215.81 31.6604C215.749 31.3828 215.718 31.1053 215.718 30.8124C215.718 26.6339 221.5 21.037 224.846 21.037H224.861C225.169 21.037 225.447 21.0833 225.709 21.1912C226.68 21.5458 227.405 22.656 227.405 23.7044L227.39 23.9203C227.297 24.9379 226.573 26.1406 225.046 27.1582C223.581 28.1295 220.837 29.2705 218.74 29.2705C218.385 29.2705 218.031 29.2397 217.722 29.1626C217.337 29.9643 217.09 30.7507 217.09 31.3983C217.09 32.2309 217.522 32.8168 218.663 32.8168C218.91 32.8168 219.202 32.7859 219.542 32.7243C222.903 32.0921 229.379 28.5304 231.938 26.4335C232 26.3718 232.077 26.3564 232.169 26.3564C232.524 26.3564 232.956 26.7881 232.956 27.1582C232.956 27.2815 232.91 27.3895 232.817 27.4665C230.18 29.7485 223.258 33.8344 219.711 34.3124C219.449 34.3432 219.187 34.3586 218.956 34.3586ZM218.709 27.4974C219.881 27.2507 221.639 26.6956 223.643 25.3388C224.491 24.7837 225.724 23.7507 225.802 22.6406C225.617 22.5789 225.432 22.548 225.247 22.548C222.934 22.5635 219.387 26.5877 218.709 27.4974Z" fill="black"/>
</svg>
